<?xml version="1.0" encoding="iso-8859-1"?>
<!-- Generator: Adobe Illustrator 19.0.0, SVG Export Plug-In . SVG Version: 6.00 Build 0)  -->
<svg version="1.1" id="Layer_1" xmlns="http://www.w3.org/2000/svg" xmlns:xlink="http://www.w3.org/1999/xlink" x="0px" y="0px"
	 viewBox="0 0 352.289 352.289" style="enable-background:new 0 0 352.289 352.289;" xml:space="preserve">
<g>
	<rect x="156.676" y="263.395" style="fill:#1E252B;" width="49.936" height="31.083"/>
	<path style="fill:#005FAD;" d="M341.289,67.567c0-12.355-10.109-22.463-22.463-22.463H22.463C10.107,45.104,0,55.212,0,67.567
		v174.365c0,12.355,10.107,22.463,22.463,22.463h296.363c12.354,0,22.463-10.109,22.463-22.463L341.289,67.567L341.289,67.567z"/>
	<path style="fill:#1E252B;" d="M0,231.938v9.994c0,12.355,10.107,22.463,22.463,22.463h296.363
		c12.354,0,22.463-10.109,22.463-22.463v-9.994L0,231.938L0,231.938z"/>
	<path style="fill:#0071CE;" d="M352.289,67.567c0-12.355-10.109-22.463-22.463-22.463H33.463C21.107,45.104,11,55.212,11,67.567
		v174.365c0,12.355,10.107,22.463,22.463,22.463h296.363c12.354,0,22.463-10.109,22.463-22.463V67.567z"/>
	<path style="fill:#333E48;" d="M11,231.938v9.994c0,12.355,10.107,22.463,22.463,22.463h296.363
		c12.354,0,22.463-10.109,22.463-22.463v-9.994L11,231.938L11,231.938z"/>
	<rect x="129.473" y="292.921" style="fill:#333E48;" width="104.34" height="14.264"/>
	<g>
		<rect x="71.074" y="81.632" style="fill:#FFFFFF;" width="220.242" height="113.001"/>
		<rect x="71.074" y="81.632" style="fill:#333E48;" width="220.242" height="18.205"/>
		<g>
			<circle style="fill:#FF6D68;" cx="82.004" cy="90.728" r="4.588"/>
			<circle style="fill:#FFC843;" cx="95.611" cy="90.728" r="4.588"/>
			<circle style="fill:#00AF41;" cx="109.22" cy="90.728" r="4.589"/>
		</g>
	</g>
</g>
<g>
</g>
<g>
</g>
<g>
</g>
<g>
</g>
<g>
</g>
<g>
</g>
<g>
</g>
<g>
</g>
<g>
</g>
<g>
</g>
<g>
</g>
<g>
</g>
<g>
</g>
<g>
</g>
<g>
</g>
</svg>
